<svg width="40" height="40" viewBox="0 0 40 40" fill="none" xmlns="http://www.w3.org/2000/svg">
<g clip-path="url(#clip0)">
<path d="M39.5113 37.1549L28.1364 25.78C30.3397 23.0584 31.6663 19.6001 31.6663 15.8334C31.6663 7.10353 24.563 0.000244141 15.8331 0.000244141C7.10321 0.000244141 0 7.10346 0 15.8334C0 24.5633 7.10329 31.6666 15.8332 31.6666C19.5998 31.6666 23.0581 30.3399 25.7797 28.1366L37.1546 39.5115C37.4796 39.8365 37.9063 39.9999 38.333 39.9999C38.7597 39.9999 39.1863 39.8365 39.5113 39.5115C40.163 38.8599 40.163 37.8065 39.5113 37.1549ZM15.8332 28.3332C8.93991 28.3332 3.33333 22.7267 3.33333 15.8334C3.33333 8.94008 8.93991 3.33349 15.8332 3.33349C22.7265 3.33349 28.3331 8.94008 28.3331 15.8334C28.3331 22.7267 22.7264 28.3332 15.8332 28.3332Z" fill="black"/>
</g>
<defs>
<clipPath id="clip0">
<rect width="40" height="40" fill="white"/>
</clipPath>
</defs>
</svg>
