<svg width="231" height="66" viewBox="0 0 231 66" fill="none" xmlns="http://www.w3.org/2000/svg">
<path d="M30.9141 25.2266C30.9141 25.2734 30.9219 25.3359 30.9375 25.4141C30.9531 25.4766 30.9609 25.5469 30.9609 25.625C30.9609 25.9531 30.8281 26.2422 30.5625 26.4922C30.3125 26.7422 30.0312 26.8672 29.7188 26.8672C29.4688 26.8672 29.2344 26.7891 29.0156 26.6328C28.8125 26.4766 28.6641 26.2656 28.5703 26C28.3672 25.4062 28.1719 24.7734 27.9844 24.1016C27.7969 23.4141 27.625 22.7422 27.4688 22.0859C27.3281 21.4297 27.1953 20.8125 27.0703 20.2344C26.9453 19.6562 26.8516 19.1641 26.7891 18.7578C25.8984 18.8047 24.8828 18.8438 23.7422 18.875C22.6016 18.8906 21.375 18.8984 20.0625 18.8984L19.2891 47.8438C20.5703 47.8906 21.8047 47.9844 22.9922 48.125C23.3359 48.1562 23.6016 48.2891 23.7891 48.5234C23.9922 48.7422 24.0938 49.0078 24.0938 49.3203C24.0938 49.7109 23.9609 50.0156 23.6953 50.2344C23.4453 50.4688 23.1797 50.5859 22.8984 50.5859H22.7578C21.4922 50.4297 20.2422 50.3203 19.0078 50.2578C17.7734 50.2109 16.5391 50.1875 15.3047 50.1875C14.0547 50.1875 12.8281 50.2109 11.625 50.2578C10.4219 50.3203 9.21875 50.4297 8.01562 50.5859H7.875C7.53125 50.5859 7.23438 50.4531 6.98438 50.1875C6.75 49.9219 6.63281 49.6328 6.63281 49.3203C6.63281 49.0078 6.73438 48.7422 6.9375 48.5234C7.15625 48.2891 7.42188 48.1562 7.73438 48.125C8.9375 47.9844 10.1172 47.8906 11.2734 47.8438L11.8125 18.7578C10.4844 18.7109 9.23438 18.6562 8.0625 18.5938C6.90625 18.5156 5.86719 18.4375 4.94531 18.3594C4.85156 18.7812 4.73438 19.2969 4.59375 19.9062C4.46875 20.5156 4.32031 21.1641 4.14844 21.8516C3.99219 22.5391 3.82812 23.2422 3.65625 23.9609C3.48438 24.6641 3.30469 25.3281 3.11719 25.9531C3.03906 26.2188 2.89062 26.4375 2.67188 26.6094C2.46875 26.7812 2.23438 26.8672 1.96875 26.8672C1.60938 26.8672 1.3125 26.7422 1.07812 26.4922C0.84375 26.2266 0.726562 25.9375 0.726562 25.625C0.726562 25.5781 0.726562 25.5234 0.726562 25.4609C0.726562 25.3828 0.742188 25.3203 0.773438 25.2734C1.00781 24.4453 1.24219 23.5391 1.47656 22.5547C1.71094 21.5703 1.92188 20.6484 2.10938 19.7891C2.3125 18.9297 2.47656 18.2109 2.60156 17.6328C2.72656 17.0547 2.78906 16.7578 2.78906 16.7422C2.86719 16.4453 3.00781 16.2109 3.21094 16.0391C3.42969 15.8672 3.6875 15.7812 3.98438 15.7812H4.17188C4.98438 15.8906 5.96875 15.9844 7.125 16.0625C8.29688 16.1406 9.55469 16.2109 10.8984 16.2734C12.2578 16.3203 13.6641 16.3594 15.1172 16.3906C16.5703 16.4219 17.9922 16.4375 19.3828 16.4375C21.0859 16.4375 22.6562 16.4219 24.0938 16.3906C25.5312 16.3438 26.7344 16.2812 27.7031 16.2031H27.7969C28.0781 16.2031 28.3359 16.3047 28.5703 16.5078C28.8047 16.6953 28.9453 16.9297 28.9922 17.2109C28.9922 17.2266 29.0156 17.3594 29.0625 17.6094C29.1094 17.8594 29.1719 18.1953 29.25 18.6172C29.3281 19.0391 29.4219 19.5234 29.5312 20.0703C29.6562 20.6172 29.7891 21.1875 29.9297 21.7812C30.0703 22.3594 30.2188 22.9531 30.375 23.5625C30.5469 24.1562 30.7266 24.7109 30.9141 25.2266ZM55.0078 38.4219C55.0078 37.6562 54.9219 36.8828 54.75 36.1016C54.5781 35.3203 54.3281 34.5625 54 33.8281C53.6719 33.0938 53.2734 32.4062 52.8047 31.7656C52.3359 31.125 51.8047 30.5703 51.2109 30.1016C50.6328 29.6172 49.9922 29.2422 49.2891 28.9766C48.6016 28.6953 47.8672 28.5547 47.0859 28.5547C46.2109 28.5547 45.4453 28.7031 44.7891 29C44.1484 29.2812 43.5859 29.6719 43.1016 30.1719C42.6172 30.6562 42.2188 31.2188 41.9062 31.8594C41.5938 32.5 41.3438 33.1797 41.1562 33.8984C40.9688 34.6172 40.8359 35.3438 40.7578 36.0781C40.6797 36.8125 40.6406 37.5156 40.6406 38.1875C40.6406 38.875 40.6719 39.6094 40.7344 40.3906C40.7969 41.1562 40.9062 41.9219 41.0625 42.6875C41.2188 43.4375 41.4297 44.1641 41.6953 44.8672C41.9609 45.5703 42.3047 46.1875 42.7266 46.7188C43.1484 47.25 43.6562 47.6719 44.25 47.9844C44.8594 48.2969 45.5781 48.4531 46.4062 48.4531C47.7656 48.4531 48.9766 48.1719 50.0391 47.6094C51.1172 47.0312 52.0234 46.2734 52.7578 45.3359C53.4922 44.3984 54.0469 43.3281 54.4219 42.125C54.8125 40.9219 55.0078 39.6875 55.0078 38.4219ZM57.4453 38.4219C57.4453 40.2969 57.1094 42.0156 56.4375 43.5781C55.7656 45.1406 54.8594 46.4844 53.7188 47.6094C52.5781 48.7188 51.2422 49.5859 49.7109 50.2109C48.1953 50.8359 46.5938 51.1484 44.9062 51.1484C43 51.1484 41.2734 50.8438 39.7266 50.2344C38.1953 49.6406 36.8828 48.7891 35.7891 47.6797C34.6953 46.5703 33.8516 45.2344 33.2578 43.6719C32.6797 42.1094 32.3906 40.3594 32.3906 38.4219C32.3906 36.5781 32.7109 34.875 33.3516 33.3125C33.9922 31.75 34.875 30.4062 36 29.2812C37.125 28.1406 38.4453 27.2578 39.9609 26.6328C41.4922 25.9922 43.1406 25.6719 44.9062 25.6719C46.75 25.6719 48.4375 26.0156 49.9688 26.7031C51.5156 27.375 52.8438 28.2969 53.9531 29.4688C55.0625 30.625 55.9219 31.9766 56.5312 33.5234C57.1406 35.0703 57.4453 36.7031 57.4453 38.4219ZM106.055 16.9766C106.055 17.2734 105.953 17.5391 105.75 17.7734C105.562 17.9922 105.328 18.125 105.047 18.1719C104.297 18.3438 103.547 18.4844 102.797 18.5938C102.062 18.7031 101.305 18.7734 100.523 18.8047C100.086 22.0547 99.6484 24.9375 99.2109 27.4531C98.7891 29.9688 98.3516 32.2266 97.8984 34.2266C97.4453 36.2109 96.9766 37.9844 96.4922 39.5469C96.0078 41.1094 95.4922 42.5625 94.9453 43.9062C94.4141 45.25 93.8438 46.5391 93.2344 47.7734C92.6406 48.9922 92 50.25 91.3125 51.5469C91.2188 51.7188 91.0781 51.8594 90.8906 51.9688C90.7188 52.0938 90.5234 52.1562 90.3047 52.1562C89.8203 52.1562 89.4531 51.9844 89.2031 51.6406C88.2344 50.2344 87.3594 48.8281 86.5781 47.4219C85.7969 46.0156 85.0938 44.6641 84.4688 43.3672C83.8594 42.0547 83.3203 40.8203 82.8516 39.6641C82.3828 38.4922 81.9844 37.4453 81.6562 36.5234C80.7188 39.2422 79.7422 41.7969 78.7266 44.1875C77.7109 46.5625 76.5781 48.8672 75.3281 51.1016C75.2344 51.2891 75.0859 51.4453 74.8828 51.5703C74.6953 51.7109 74.4922 51.7812 74.2734 51.7812C73.8203 51.7812 73.4688 51.5703 73.2188 51.1484C71.8594 48.9453 70.6641 46.7109 69.6328 44.4453C68.6016 42.1641 67.7031 39.9375 66.9375 37.7656C66.1875 35.5938 65.5469 33.5156 65.0156 31.5312C64.4844 29.5312 64.0469 27.7031 63.7031 26.0469C63.375 24.3906 63.1172 22.9453 62.9297 21.7109C62.7578 20.4766 62.6328 19.5234 62.5547 18.8516C62.1641 18.8203 61.7812 18.7891 61.4062 18.7578C61.0312 18.7266 60.6641 18.6953 60.3047 18.6641C59.9922 18.6172 59.7266 18.4766 59.5078 18.2422C59.3047 17.9922 59.2031 17.7109 59.2031 17.3984C59.25 17.0234 59.3906 16.7344 59.625 16.5312C59.8594 16.3125 60.1328 16.2031 60.4453 16.2031H60.5391C62.3203 16.3906 64.1484 16.4844 66.0234 16.4844C67.5234 16.4844 69.0156 16.4297 70.5 16.3203C72 16.1953 73.4531 16.0156 74.8594 15.7812H75.0469C75.4062 15.7812 75.7031 15.9062 75.9375 16.1562C76.1719 16.3906 76.2891 16.6641 76.2891 16.9766C76.2891 17.2891 76.1875 17.5625 75.9844 17.7969C75.7969 18.0312 75.5469 18.1719 75.2344 18.2188C74.5312 18.3125 73.8203 18.4062 73.1016 18.5C72.3984 18.5938 71.6719 18.6797 70.9219 18.7578C70.9844 19.3359 71.0781 20.1016 71.2031 21.0547C71.3438 21.9922 71.5234 23.0625 71.7422 24.2656C71.9609 25.4531 72.2266 26.75 72.5391 28.1562C72.8672 29.5469 73.25 30.9922 73.6875 32.4922C74.1406 33.9766 74.6484 35.4922 75.2109 37.0391C75.7891 38.5703 76.4375 40.0781 77.1562 41.5625C77.8906 39.8281 78.5781 38.0703 79.2188 36.2891C79.875 34.4922 80.4531 32.6875 80.9531 30.875C81.4531 29.0625 81.875 27.25 82.2188 25.4375C82.5625 23.6094 82.7969 21.7812 82.9219 19.9531C82.9531 19.6406 83.0703 19.3828 83.2734 19.1797C83.4922 18.9609 83.7578 18.8359 84.0703 18.8047C84.3828 18.8047 84.6562 18.8984 84.8906 19.0859C85.125 19.2734 85.2812 19.5156 85.3594 19.8125C85.6875 21.625 86.0859 23.4375 86.5547 25.25C87.0234 27.0469 87.5703 28.875 88.1953 30.7344C88.8359 32.5781 89.5547 34.4531 90.3516 36.3594C91.1484 38.2656 92.0312 40.2188 93 42.2188C93.4688 41.0156 93.9141 39.6875 94.3359 38.2344C94.7734 36.7812 95.1953 35.125 95.6016 33.2656C96.0078 31.4062 96.4141 29.2969 96.8203 26.9375C97.2266 24.5781 97.6328 21.8828 98.0391 18.8516C97.3359 18.8203 96.6328 18.7734 95.9297 18.7109C95.2422 18.6328 94.5312 18.5312 93.7969 18.4062C93.5156 18.3594 93.2734 18.2266 93.0703 18.0078C92.8828 17.7734 92.7891 17.5078 92.7891 17.2109C92.7891 16.8047 92.9219 16.5 93.1875 16.2969C93.4688 16.0781 93.7422 15.9688 94.0078 15.9688H94.2422C95.8047 16.25 97.375 16.3906 98.9531 16.3906C99.8906 16.3906 100.82 16.3438 101.742 16.25C102.664 16.1562 103.586 16 104.508 15.7812H104.789C105.133 15.7812 105.43 15.9062 105.68 16.1562C105.93 16.3906 106.055 16.6641 106.055 16.9766ZM121.125 41.7969C121.094 41.5312 121.07 41.2578 121.055 40.9766C121.039 40.6953 121.031 40.4062 121.031 40.1094H120.164C119.539 40.1094 118.797 40.1562 117.938 40.25C117.094 40.3438 116.219 40.4922 115.312 40.6953C114.406 40.8984 113.508 41.1719 112.617 41.5156C111.727 41.8438 110.93 42.25 110.227 42.7344C109.523 43.2031 108.953 43.7578 108.516 44.3984C108.094 45.0391 107.883 45.7734 107.883 46.6016C107.883 47.0391 107.984 47.4141 108.188 47.7266C108.406 48.0391 108.672 48.2969 108.984 48.5C109.312 48.6875 109.672 48.8281 110.062 48.9219C110.453 49 110.828 49.0391 111.188 49.0391C112.297 49.0391 113.344 48.8281 114.328 48.4062C115.328 47.9688 116.25 47.4062 117.094 46.7188C117.938 46.0156 118.695 45.2344 119.367 44.375C120.039 43.5156 120.625 42.6562 121.125 41.7969ZM132.352 49.9062H132.258C131.992 49.875 131.719 49.8594 131.438 49.8594C131.156 49.8594 130.883 49.8594 130.617 49.8594C129.148 49.8594 127.734 49.9531 126.375 50.1406C125.031 50.3281 123.68 50.6172 122.32 51.0078C122.273 51.0078 122.227 51.0156 122.18 51.0312C122.133 51.0469 122.07 51.0547 121.992 51.0547C121.633 51.0547 121.336 50.9141 121.102 50.6328C120.883 50.3672 120.773 50.0938 120.773 49.8125V49.625C120.773 49.5938 120.812 49.2812 120.891 48.6875C120.969 48.0781 121.047 47.2344 121.125 46.1562C120.453 46.9062 119.734 47.6094 118.969 48.2656C118.219 48.9062 117.422 49.4688 116.578 49.9531C115.75 50.4219 114.891 50.7891 114 51.0547C113.109 51.3359 112.188 51.4766 111.234 51.4766C110.484 51.4766 109.758 51.3594 109.055 51.125C108.352 50.9062 107.727 50.5859 107.18 50.1641C106.648 49.7422 106.219 49.2344 105.891 48.6406C105.578 48.0312 105.422 47.3516 105.422 46.6016C105.422 45.4297 105.672 44.3984 106.172 43.5078C106.688 42.6172 107.359 41.8438 108.188 41.1875C109.016 40.5156 109.953 39.9609 111 39.5234C112.062 39.0703 113.141 38.7109 114.234 38.4453C115.328 38.1641 116.391 37.9688 117.422 37.8594C118.453 37.7344 119.367 37.6719 120.164 37.6719H120.727C120.727 36.7188 120.555 35.7891 120.211 34.8828C119.883 33.9766 119.414 33.1719 118.805 32.4688C118.211 31.7656 117.5 31.2031 116.672 30.7812C115.844 30.3438 114.93 30.125 113.93 30.125C113.195 30.125 112.477 30.3359 111.773 30.7578C111.07 31.1641 110.445 31.6875 109.898 32.3281C109.352 32.9688 108.906 33.6875 108.562 34.4844C108.234 35.2812 108.07 36.0547 108.07 36.8047C108.07 37.1172 107.938 37.3828 107.672 37.6016C107.422 37.8047 107.141 37.9062 106.828 37.9062C106.484 37.9062 106.188 37.7812 105.938 37.5312C105.688 37.2656 105.562 36.9766 105.562 36.6641C105.562 35.9141 105.695 35.1328 105.961 34.3203C106.227 33.4922 106.609 32.6875 107.109 31.9062C107.625 31.1094 108.242 30.3594 108.961 29.6562C109.695 28.9531 110.523 28.3359 111.445 27.8047C112.383 27.2578 113.406 26.8281 114.516 26.5156C115.625 26.2031 116.805 26.0469 118.055 26.0469C119.805 26.0469 121.297 26.3203 122.531 26.8672C123.781 27.4141 124.82 28.1562 125.648 29.0938C126.492 30.0312 127.156 31.1172 127.641 32.3516C128.125 33.5859 128.492 34.8906 128.742 36.2656C128.992 37.6406 129.148 39.0391 129.211 40.4609C129.289 41.8828 129.328 43.2422 129.328 44.5391C129.328 45.1953 129.32 45.7578 129.305 46.2266C129.289 46.6953 129.281 47.0859 129.281 47.3984C129.516 47.3984 129.75 47.3906 129.984 47.375C130.234 47.3594 130.477 47.3516 130.711 47.3516C130.977 47.3516 131.25 47.3594 131.531 47.375C131.828 47.3906 132.117 47.3984 132.398 47.3984C132.742 47.4297 133.016 47.5625 133.219 47.7969C133.438 48.0312 133.547 48.3203 133.547 48.6641C133.547 48.9922 133.43 49.2812 133.195 49.5312C132.977 49.7812 132.695 49.9062 132.352 49.9062ZM153.398 27.1953C153.398 27.5078 153.289 27.7891 153.07 28.0391C152.867 28.2734 152.609 28.4062 152.297 28.4375C151.281 28.5156 150.273 28.5859 149.273 28.6484C148.273 28.7109 147.266 28.7578 146.25 28.7891V45.1953C146.25 45.5078 146.312 45.7969 146.438 46.0625C146.578 46.3281 146.75 46.5547 146.953 46.7422C147.172 46.9297 147.414 47.0781 147.68 47.1875C147.945 47.2969 148.219 47.3516 148.5 47.3516C148.922 47.3516 149.266 47.2422 149.531 47.0234C149.812 46.7891 150.047 46.5078 150.234 46.1797C150.422 45.8359 150.57 45.4766 150.68 45.1016C150.805 44.7266 150.906 44.3906 150.984 44.0938C151.031 43.8125 151.172 43.5859 151.406 43.4141C151.641 43.2266 151.898 43.1328 152.18 43.1328C152.539 43.1328 152.828 43.2734 153.047 43.5547C153.281 43.8203 153.398 44.0938 153.398 44.375V44.6328C152.945 46.7109 152.055 48.3203 150.727 49.4609C149.398 50.5859 147.758 51.1484 145.805 51.1484C144.914 51.1484 144 51.0312 143.062 50.7969C142.125 50.5625 141.273 50.125 140.508 49.4844C139.758 48.8438 139.141 47.9609 138.656 46.8359C138.172 45.6953 137.93 44.2188 137.93 42.4062V28.7422C137.227 28.6953 136.516 28.6484 135.797 28.6016C135.094 28.5547 134.383 28.5 133.664 28.4375C133.352 28.3906 133.086 28.25 132.867 28.0156C132.664 27.7812 132.562 27.5078 132.562 27.1953C132.562 26.8359 132.695 26.5469 132.961 26.3281C133.242 26.1094 133.523 26 133.805 26H133.898C134.586 26.0469 135.258 26.0938 135.914 26.1406C136.586 26.1875 137.258 26.2344 137.93 26.2812V18.3125C137.93 18.0469 138.016 17.8047 138.188 17.5859C138.359 17.3516 138.578 17.1953 138.844 17.1172L144.703 15.5469C144.75 15.5156 144.805 15.5 144.867 15.5C144.93 15.4844 144.984 15.4766 145.031 15.4766C145.391 15.4766 145.68 15.6094 145.898 15.875C146.133 16.1406 146.25 16.4297 146.25 16.7422V26.3281C147.203 26.2969 148.164 26.2578 149.133 26.2109C150.117 26.1484 151.102 26.0781 152.086 26H152.18C152.523 26 152.812 26.125 153.047 26.375C153.281 26.6094 153.398 26.8828 153.398 27.1953ZM179.227 34.4375C179.18 34.75 179.031 35.0078 178.781 35.2109C178.547 35.4141 178.273 35.5156 177.961 35.5156C177.648 35.5156 177.375 35.4062 177.141 35.1875C176.922 34.9688 176.797 34.6875 176.766 34.3438C176.766 33.6719 176.625 32.9688 176.344 32.2344C176.062 31.5 175.68 30.8281 175.195 30.2188C174.711 29.6094 174.156 29.1094 173.531 28.7188C172.906 28.3125 172.242 28.1094 171.539 28.1094C170.664 28.1094 169.891 28.2969 169.219 28.6719C168.547 29.0312 167.961 29.5156 167.461 30.125C166.961 30.7344 166.547 31.4297 166.219 32.2109C165.891 32.9922 165.625 33.7969 165.422 34.625C165.219 35.4375 165.07 36.2422 164.977 37.0391C164.898 37.8359 164.859 38.5547 164.859 39.1953C164.859 40.2891 164.977 41.3828 165.211 42.4766C165.461 43.5703 165.836 44.5547 166.336 45.4297C166.836 46.2891 167.477 46.9922 168.258 47.5391C169.039 48.0859 169.969 48.3594 171.047 48.3594C171.844 48.3594 172.594 48.1797 173.297 47.8203C174 47.4609 174.625 47 175.172 46.4375C175.734 45.8594 176.211 45.2266 176.602 44.5391C176.992 43.8516 177.273 43.1797 177.445 42.5234C177.523 42.2266 177.664 41.9844 177.867 41.7969C178.086 41.6094 178.344 41.5156 178.641 41.5156C178.984 41.5156 179.273 41.6484 179.508 41.9141C179.758 42.1641 179.883 42.4453 179.883 42.7578C179.883 42.8516 179.867 42.9297 179.836 42.9922C179.727 43.5078 179.539 44.0703 179.273 44.6797C179.008 45.2891 178.656 45.8984 178.219 46.5078C177.797 47.1172 177.281 47.7109 176.672 48.2891C176.062 48.8516 175.367 49.3516 174.586 49.7891C173.805 50.2266 172.938 50.5781 171.984 50.8438C171.031 51.1094 169.984 51.2422 168.844 51.2422C167.047 51.2422 165.391 50.9375 163.875 50.3281C162.359 49.7344 161.055 48.8984 159.961 47.8203C158.867 46.7266 158.008 45.4219 157.383 43.9062C156.773 42.375 156.469 40.6953 156.469 38.8672C156.469 36.8984 156.734 35.0703 157.266 33.3828C157.812 31.6953 158.602 30.2344 159.633 29C160.68 27.7656 161.961 26.7969 163.477 26.0938C165.008 25.3906 166.766 25.0391 168.75 25.0391C170.531 25.0391 172.188 25.3984 173.719 26.1172C175.25 26.8203 176.508 27.8828 177.492 29.3047L178.266 24.5234C178.312 24.2266 178.445 23.9844 178.664 23.7969C178.898 23.6094 179.164 23.5156 179.461 23.5156C179.852 23.5156 180.156 23.6484 180.375 23.9141C180.594 24.1797 180.703 24.4453 180.703 24.7109V24.8984L179.227 34.4375ZM212.531 49.625C212.469 49.625 212.422 49.6094 212.391 49.5781C211.844 49.5 211.305 49.4453 210.773 49.4141C210.242 49.3828 209.711 49.3672 209.18 49.3672C208.383 49.3672 207.586 49.4062 206.789 49.4844C206.008 49.5625 205.219 49.6719 204.422 49.8125C204.391 49.8438 204.359 49.8594 204.328 49.8594C204.297 49.8594 204.266 49.8594 204.234 49.8594C203.875 49.8594 203.578 49.7344 203.344 49.4844C203.109 49.2188 202.992 48.9297 202.992 48.6172C202.992 48.3203 203.086 48.0625 203.273 47.8438C203.461 47.6094 203.703 47.4609 204 47.3984C205.109 47.1641 206.227 47.0234 207.352 46.9766C208.211 43.0234 208.641 39.6484 208.641 36.8516C208.641 35.6328 208.547 34.4922 208.359 33.4297C208.188 32.3516 207.867 31.4141 207.398 30.6172C206.945 29.8203 206.32 29.1875 205.523 28.7188C204.727 28.25 203.703 28.0156 202.453 28.0156C201.75 28.0156 201.078 28.1484 200.438 28.4141C199.812 28.6797 199.227 29.0391 198.68 29.4922C198.148 29.9297 197.664 30.4453 197.227 31.0391C196.789 31.6328 196.414 32.2578 196.102 32.9141C195.805 33.5547 195.57 34.2109 195.398 34.8828C195.242 35.5547 195.164 36.1953 195.164 36.8047L195.117 47.2578C195.664 47.3047 196.211 47.375 196.758 47.4688C197.32 47.5625 197.891 47.6719 198.469 47.7969C198.766 47.8438 199.008 47.9844 199.195 48.2188C199.383 48.4375 199.477 48.6953 199.477 48.9922C199.477 49.3516 199.344 49.6406 199.078 49.8594C198.828 50.0781 198.547 50.1875 198.234 50.1875H198C196.734 49.9531 195.531 49.7734 194.391 49.6484C193.25 49.5234 192.117 49.4609 190.992 49.4609C189.883 49.4609 188.758 49.5234 187.617 49.6484C186.477 49.7734 185.281 49.9531 184.031 50.1875H183.797C183.438 50.1875 183.141 50.0703 182.906 49.8359C182.688 49.5859 182.578 49.3047 182.578 48.9922C182.578 48.6953 182.664 48.4375 182.836 48.2188C183.023 47.9844 183.258 47.8438 183.539 47.7969C184.086 47.6719 184.633 47.5703 185.18 47.4922C185.742 47.4141 186.289 47.3359 186.82 47.2578V19.3203C185.836 19.2734 185.008 19.2188 184.336 19.1562C183.664 19.0781 183.289 19.0391 183.211 19.0391C182.898 18.9922 182.641 18.8516 182.438 18.6172C182.25 18.3828 182.156 18.1094 182.156 17.7969C182.156 17.4062 182.297 17.1094 182.578 16.9062C182.859 16.7031 183.133 16.6016 183.398 16.6016H183.539C183.555 16.6016 183.734 16.625 184.078 16.6719C184.422 16.7031 184.867 16.7422 185.414 16.7891C185.977 16.8359 186.609 16.8828 187.312 16.9297C188.016 16.9609 188.742 16.9766 189.492 16.9766C190.242 16.9766 190.977 16.9531 191.695 16.9062C192.414 16.8438 193.078 16.7422 193.688 16.6016H193.922C194.281 16.6016 194.578 16.7266 194.812 16.9766C195.047 17.2109 195.164 17.4844 195.164 17.7969V29.7031C196.055 28.3281 197.109 27.2969 198.328 26.6094C199.562 25.9219 200.938 25.5781 202.453 25.5781C204.078 25.5781 205.438 25.875 206.531 26.4688C207.641 27.0625 208.531 27.8672 209.203 28.8828C209.891 29.8984 210.375 31.1016 210.656 32.4922C210.953 33.8672 211.102 35.3359 211.102 36.8984C211.102 39.6641 210.688 43.0078 209.859 46.9297C210.344 46.9297 210.82 46.9531 211.289 47C211.773 47.0312 212.242 47.0859 212.695 47.1641C213.008 47.1953 213.266 47.3281 213.469 47.5625C213.688 47.7812 213.797 48.0469 213.797 48.3594C213.797 48.7031 213.664 49 213.398 49.25C213.133 49.5 212.844 49.625 212.531 49.625Z" fill="#E5E5E5"/>
</svg>
